<?xml version="1.0" encoding="utf-8"?>
<!-- Generator: Adobe Illustrator 24.3.0, SVG Export Plug-In . SVG Version: 6.00 Build 0)  -->
<svg version="1.1" id="Layer_1" xmlns="http://www.w3.org/2000/svg" xmlns:xlink="http://www.w3.org/1999/xlink" x="0px" y="0px"
	 viewBox="0 0 64 64" style="enable-background:new 0 0 64 64;" xml:space="preserve">
<style type="text/css">
	.st0{fill:#EB417A;}
</style>
<g>
	<path class="st0" d="M64.2,35.8c-0.6,1-0.5,2.1-0.8,3.1c-1,4.4-2.8,8.4-5.6,12.1c-1.2-2-2.3-3.9-3.4-5.8c-1.6-2.8-3.1-5.6-4.7-8.3
		c-0.5-0.8-0.3-1,0.5-1.2c6.4-1.8,9.8-7.5,8.3-13.6c-0.8-3.2-3.4-5.3-7.2-6c-2.2-0.4-4.3-0.2-6.5-0.2c-2.5,0-5.1,0-7.6,0
		c-0.9,0-1.5,0.3-2,1c-4.5,5.9-9.1,11.7-13.7,17.5c-0.1,0.1-0.2,0.2-0.5,0.5c-1.1-2.6-2.1-5.2-3.1-7.7c-1.4-3.4-2.7-6.8-4.1-10.2
		c-0.3-0.8-0.6-1.2-1.5-1.1c-1.2,0.1-2.5,0.1-3.7,0c-0.8,0-1,0.2-1.2,1C6.1,24.9,4.4,33,2.8,41.1c-0.1,0.5-0.2,1-0.4,1.7
		c-1.2-3.1-1.7-6.1-1.9-9.1C-0.3,17.4,11,3.2,27.1,0.5c0.5-0.1,1,0,1.4-0.4c2.5,0,4.9,0,7.4,0c0.2,0.4,0.5,0.2,0.8,0.3
		C50,2.4,60.2,11.7,63.4,24.6c0.3,1.3,0.3,2.6,0.8,3.8C64.2,30.9,64.2,33.4,64.2,35.8z"/>
	<path class="st0" d="M32.9,64c0.6-3.2,1.1-6.4,1.8-9.5c1.1-5.7,2.2-11.4,3.3-17c0.2-0.8,0.5-1,1.2-1c2.4,0,4.8,0,7.1,0
		c0.5,0,0.8,0.2,1.1,0.6c2.9,5.1,5.8,10.2,8.7,15.3c0.4,0.8-0.1,1.1-0.5,1.5c-5.2,5.5-11.6,8.8-19.1,9.9c-0.2,0-0.5-0.1-0.6,0.3
		C34.9,64,33.9,64,32.9,64z"/>
	<path class="st0" d="M33,28.9c-0.8,3.8-1.5,7.7-2.3,11.5c-1.4,7.2-2.8,14.4-4.2,21.6c-0.2,1.2-0.6,1.4-1.7,1.1
		c-6.5-1.7-12-5-16.5-10.1c-0.7-0.8-1-1.6-0.7-2.7c1.4-6.9,2.8-13.8,4.2-20.8c0.1-0.3,0.2-0.6,0.3-1.2c1.3,3.1,2.5,5.9,3.7,8.8
		c0.7,1.7,1.5,3.5,2.1,5.2c0.3,0.7,0.7,1,1.5,1c1.5,0.1,2.5-0.4,3.4-1.6c3.3-4.4,6.6-8.6,10-12.9C32.8,28.8,32.9,28.9,33,28.9z"/>
	<path class="st0" d="M46.1,18c1.4,0,2.8-0.2,4.2,0c5.1,0.7,7.2,3.9,6.1,9c-0.9,4.1-4,6.6-8.6,7.2c-2.8,0.3-5.7,0.1-8.5,0.2
		c-0.6,0-0.7-0.1-0.6-0.7c1-5,2-10.1,3-15.1c0.1-0.6,0.4-0.7,1-0.7c1.2,0,2.4,0,3.6,0C46.1,18,46.1,18,46.1,18z"/>
</g>
</svg>
