<?xml version="1.0" standalone="no"?>
<svg viewBox="0 0 200 200" xmlns="http://www.w3.org/2000/svg">
  <path fill="#1085E4" d="M30,-51.9C39,-46.8,46.4,-39,52.5,-29.9C58.5,-20.7,63.1,-10.4,66.2,1.8C69.2,13.9,70.7,27.8,60.8,30.2C50.9,32.6,29.6,23.5,17.6,16.9C5.5,10.4,2.8,6.4,-0.1,6.6C-3,6.8,-5.9,11.1,-19.9,18.8C-33.9,26.4,-59,37.5,-67,34.9C-75.1,32.3,-66.1,16.2,-62.7,2C-59.3,-12.3,-61.5,-24.5,-54.1,-28.2C-46.7,-31.8,-29.7,-26.9,-19.1,-31C-8.5,-35.1,-4.2,-48.3,3.1,-53.7C10.5,-59.2,21.1,-57,30,-51.9Z" transform="translate(100 100)" />
</svg>
