<?xml version="1.0" standalone="no"?>
<svg viewBox="0 0 200 200" xmlns="http://www.w3.org/2000/svg">
  <path fill="#1085E4" d="M41.9,-77C50.9,-67.5,52.3,-49.2,50.9,-34.9C49.6,-20.7,45.5,-10.3,47.2,0.9C48.8,12.2,56.2,24.4,52.9,30.7C49.5,36.9,35.6,37.1,25,32.9C14.4,28.7,7.2,20,0.9,18.4C-5.4,16.9,-10.8,22.5,-17.9,24.7C-25,27,-33.8,25.8,-40.5,21.1C-47.2,16.4,-51.8,8.2,-50.8,0.6C-49.7,-7,-43,-13.9,-35.6,-17.6C-28.3,-21.2,-20.4,-21.4,-14.4,-32.7C-8.4,-43.9,-4.2,-66,6.2,-76.7C16.5,-87.3,33,-86.5,41.9,-77Z" transform="translate(100 100)" />
</svg>
