<?xml version="1.0" standalone="no"?>
<svg viewBox="0 0 200 200" xmlns="http://www.w3.org/2000/svg">
  <path fill="#1085e4" d="M33.5,-49C44.8,-51.5,56.2,-45.3,60,-35.6C63.8,-26,60.1,-13,49.7,-6C39.4,1.1,22.5,2.1,16.9,8.8C11.4,15.4,17.2,27.6,16.2,43.7C15.3,59.8,7.7,79.8,-4.5,87.6C-16.6,95.3,-33.2,90.7,-33.9,74.5C-34.6,58.3,-19.4,30.3,-15.5,16C-11.5,1.6,-18.9,0.8,-19.2,-0.2C-19.5,-1.1,-12.7,-2.3,-13.6,-11.3C-14.4,-20.4,-22.9,-37.3,-21.9,-40.7C-20.9,-44.1,-10.4,-34,0.3,-34.6C11.1,-35.2,22.2,-46.5,33.5,-49Z" transform="translate(100 100)" />
</svg>
