<?xml version="1.0" standalone="no"?>
<svg viewBox="0 0 200 200" xmlns="http://www.w3.org/2000/svg">
  <path fill="#1085e4" d="M31.6,-46C41.5,-48.9,50.5,-41.7,58,-32.3C65.6,-22.9,71.6,-11.5,74.6,1.8C77.7,15,77.7,29.9,68.1,35.7C58.5,41.5,39.2,38,26.3,36.5C13.3,34.9,6.7,35.2,-4.7,43.3C-16,51.4,-32.1,67.4,-41.7,67.1C-51.4,66.7,-54.6,50.1,-61.2,36.2C-67.9,22.3,-77.9,11.1,-71.8,3.6C-65.6,-4,-43.2,-8,-32.4,-14.7C-21.6,-21.5,-22.5,-30.9,-19,-31.7C-15.5,-32.5,-7.8,-24.7,1.5,-27.4C10.8,-30,21.6,-43.1,31.6,-46Z" transform="translate(100 100)" />
</svg>
