<?xml version="1.0" standalone="no"?>
<svg viewBox="0 0 200 200" xmlns="http://www.w3.org/2000/svg">
  <path fill="#1085e4" d="M13.1,-19.5C17.8,-20,23,-18.1,37.5,-14.5C51.9,-10.9,75.5,-5.4,82.4,3.9C89.2,13.3,79.2,26.6,70.9,40.8C62.5,55,55.8,70,44.3,77.3C32.7,84.5,16.4,83.9,2,80.4C-12.3,77,-24.7,70.5,-38.2,64.4C-51.7,58.4,-66.5,52.6,-73.8,41.9C-81.1,31.3,-81,15.6,-81.1,-0.1C-81.3,-15.8,-81.6,-31.5,-68.5,-32.1C-55.3,-32.7,-28.7,-18.2,-15,-12.5C-1.4,-6.8,-0.7,-10.1,1.8,-13.1C4.2,-16.2,8.4,-19,13.1,-19.5Z" transform="translate(100 100)" />
</svg>
