<?xml version="1.0" standalone="no"?>
<svg viewBox="0 0 200 200" xmlns="http://www.w3.org/2000/svg">
  <path fill="#1085E4" d="M21.6,-43.3C27.8,-33.9,32.4,-27.6,36.5,-20.9C40.5,-14.2,44.1,-7.1,50.1,3.5C56.1,14.1,64.6,28.1,62.5,38.3C60.5,48.5,47.9,54.9,35.7,59.1C23.6,63.3,11.8,65.4,-0.8,66.8C-13.3,68.1,-26.7,68.7,-35.7,62.7C-44.7,56.6,-49.4,43.9,-43,32.4C-36.5,20.8,-19,10.4,-21.8,-1.6C-24.6,-13.7,-47.8,-27.3,-51.1,-33.4C-54.4,-39.4,-37.6,-37.9,-25.8,-44C-14,-50.2,-7,-64,0.4,-64.7C7.7,-65.3,15.5,-52.8,21.6,-43.3Z" transform="translate(100 100)" />
</svg>
