<?xml version="1.0" standalone="no"?>
<svg viewBox="0 0 200 200" xmlns="http://www.w3.org/2000/svg">
  <path fill="#1085E4" d="M22.9,-39.7C32.2,-34.2,44.2,-33.3,41.1,-27.5C37.9,-21.6,19.6,-10.8,22.4,1.6C25.2,14.1,49.1,28.1,48.9,28.1C48.7,28.1,24.4,14.1,12.2,13.9C0,13.7,0,27.4,-6.3,38.4C-12.7,49.4,-25.4,57.7,-39.3,58.9C-53.3,60.1,-68.4,54.2,-76.9,43.2C-85.4,32.2,-87.2,16.1,-73.3,8C-59.5,-0.1,-29.9,-0.1,-16.6,-2.7C-3.2,-5.3,-6,-10.3,-6,-21.2C-5.9,-32.1,-3,-48.8,1.9,-52C6.8,-55.3,13.5,-45.2,22.9,-39.7Z" transform="translate(100 100)" />
</svg>
