<?xml version="1.0" standalone="no"?>
<svg viewBox="0 0 200 200" xmlns="http://www.w3.org/2000/svg">
  <path fill="#1085E4" d="M25.2,-45.4C35.7,-37.7,49.3,-37,58.3,-30.6C67.3,-24.2,71.7,-12.1,63.2,-4.9C54.8,2.4,33.6,4.8,23.2,8.8C12.9,12.8,13.4,18.5,11.3,21.8C9.3,25.2,4.6,26.2,0.8,24.9C-3.1,23.6,-6.2,19.8,-14.9,20.3C-23.6,20.8,-37.8,25.4,-40.4,22.7C-43,20.1,-33.9,10,-26.6,4.2C-19.2,-1.6,-13.7,-3.1,-15.3,-13.1C-16.9,-23.1,-25.7,-41.4,-24.4,-54.5C-23,-67.5,-11.5,-75.2,-2.1,-71.6C7.4,-68,14.8,-53.2,25.2,-45.4Z" transform="translate(100 100)" />
</svg>
