<?xml version="1.0" standalone="no"?>
<svg viewBox="0 0 200 200" xmlns="http://www.w3.org/2000/svg">
  <path fill="#1085e4" d="M28.3,-49C34,-45.8,34.1,-32.7,38.8,-22.9C43.5,-13.2,52.9,-6.6,59.7,4C66.6,14.5,71.1,29.1,65.6,37.6C60.2,46.1,44.8,48.6,32.3,47.6C19.7,46.6,9.8,42.1,0.7,40.9C-8.5,39.7,-17,42,-20.9,38C-24.9,34,-24.2,23.8,-27,16.4C-29.8,9.1,-36.1,4.5,-37.9,-1C-39.7,-6.6,-37.1,-13.3,-33.1,-18.6C-29.2,-24,-23.9,-28.1,-18.1,-31.3C-12.4,-34.5,-6.2,-36.8,2.6,-41.2C11.3,-45.7,22.6,-52.2,28.3,-49Z" transform="translate(100 100)" />
</svg>
