<?xml version="1.0" standalone="no"?>
<svg viewBox="0 0 200 200" xmlns="http://www.w3.org/2000/svg">
  <path fill="#1085E4" d="M16.8,-33.6C23.5,-21.8,31.9,-20.1,37.9,-14.9C43.9,-9.8,47.6,-1.2,41,1.9C34.3,5,17.3,2.6,12.9,15.5C8.5,28.4,16.7,56.5,12.6,70C8.6,83.6,-7.6,82.5,-13.2,69.6C-18.7,56.7,-13.6,32,-16.9,19.5C-20.3,7,-32.3,6.7,-33.1,4.5C-33.8,2.2,-23.5,-1.9,-21.9,-12C-20.4,-22.1,-27.6,-38.2,-25.5,-52.1C-23.3,-66,-11.6,-77.6,-3.3,-72.5C5,-67.4,10.1,-45.5,16.8,-33.6Z" transform="translate(100 100)" />
</svg>
