<?xml version="1.0" standalone="no"?>
<svg viewBox="0 0 200 200" xmlns="http://www.w3.org/2000/svg">
  <path fill="#1085E4" d="M10.3,-18.8C15.9,-14.6,24.7,-17,39.5,-15C54.3,-12.9,75.1,-6.5,73.4,-1C71.7,4.5,47.5,9,37.4,19.2C27.4,29.5,31.4,45.5,27.5,48.8C23.7,52.2,11.8,42.8,4.9,34.3C-2,25.8,-4,18.2,-17.3,20.3C-30.6,22.3,-55.2,34.2,-59.8,32.4C-64.4,30.7,-49,15.3,-40.9,4.7C-32.8,-6,-32,-12,-26.6,-12.4C-21.2,-12.8,-11.3,-7.5,-6.1,-11.9C-0.9,-16.4,-0.4,-30.5,1,-32.1C2.4,-33.8,4.7,-23.1,10.3,-18.8Z" transform="translate(100 100)" />
</svg>
