<?xml version="1.0" standalone="no"?>
<svg viewBox="0 0 200 200" xmlns="http://www.w3.org/2000/svg">
  <path fill="#1085E4" d="M37,-60.6C44.7,-59.7,45.5,-43.2,51.6,-30.5C57.8,-17.8,69.4,-8.9,66.2,-1.8C63,5.2,45.1,10.4,35.2,16.7C25.3,22.9,23.5,30.2,19,43.3C14.4,56.5,7.2,75.4,1.3,73.2C-4.6,71,-9.3,47.6,-14.5,34.8C-19.6,22.1,-25.3,20,-39.1,16C-52.9,11.9,-74.8,6,-74,0.5C-73.2,-5.1,-49.8,-10.1,-39.2,-19.7C-28.6,-29.2,-30.8,-43.2,-26.4,-46.1C-22,-48.9,-11,-40.5,1.8,-43.7C14.7,-46.8,29.3,-61.5,37,-60.6Z" transform="translate(100 100)" />
</svg>
